<svg width="20" height="20" viewBox="0 0 20 20" fill="none" xmlns="http://www.w3.org/2000/svg">
<path fill-rule="evenodd" clip-rule="evenodd" d="M18.5001 18.4997C18.1586 18.8412 17.3415 19.3412 17.0001 18.9997L1.00005 2.99973C0.658577 2.65826 1.15853 1.84147 1.5 1.5C1.84147 1.15853 2.65858 0.658346 3.00005 0.999816L19.0001 16.9997C19.3415 17.3412 18.8415 18.1583 18.5001 18.4997Z" fill="white"/>
<path fill-rule="evenodd" clip-rule="evenodd" d="M1.50005 18.4997C1.15858 18.1583 0.658577 17.3414 1.00005 16.9999L17.0001 0.999816C17.3415 0.658346 18.1586 1.15826 18.5001 1.49973C18.8415 1.8412 19.3415 2.65826 19.0001 2.99973L3.00005 18.9999C2.65858 19.3414 1.84152 18.8412 1.50005 18.4997Z" fill="white"/>
</svg>
