<svg viewBox="0 0 16 21" fill="none" xmlns="http://www.w3.org/2000/svg">
  <path d="M8 0.399902C3.589 0.399902 0 3.9889 0 8.3999C0 12.5494 5.2335 20.3999 8 20.3999C10.766 20.3999 16 12.5494 16 8.3999C16 3.9889 12.411 0.399902 8 0.399902ZM8 18.3989C6.617 18.1999 2 11.9149 2 8.3999C2 5.0914 4.6915 2.3999 8 2.3999C11.3085 2.3999 14 5.0914 14 8.3999C14 11.9149 9.383 18.1999 8 18.3989Z" fill="#337FD2"/>
  <path d="M8 10.3999C9.10457 10.3999 10 9.50447 10 8.3999C10 7.29533 9.10457 6.3999 8 6.3999C6.89543 6.3999 6 7.29533 6 8.3999C6 9.50447 6.89543 10.3999 8 10.3999Z" fill="#337FD2"/>
</svg>
